<svg xmlns="http://www.w3.org/2000/svg" viewBox="0 0 144 59.83"><defs><style>.cls-1{fill:#ffc007;}.cls-2{fill:#fff;}</style></defs><title>corp.brand.aerohiveLogo.registered.AI_SOURCE</title><g id="_3.Full_Color.WHT_ALT" data-name="3.Full_Color.WHT_ALT"><g id="HexagonBug"><path class="cls-1" d="M27.19,12.72a.35.35,0,0,1,.29-.22,1.07,1.07,0,0,0-.51.12L12.52,21a1.13,1.13,0,0,0-.52.9V39.08a.94.94,0,0,0,.1.38Z"/><path class="cls-1" d="M27.78,12.72,42.87,39.46a.94.94,0,0,0,.1-.38V21.92a1.16,1.16,0,0,0-.52-.9L28,12.62a1.08,1.08,0,0,0-.52-.12A.35.35,0,0,1,27.78,12.72Z"/><path class="cls-1" d="M27.48,19.47l-12,21.22a.92.92,0,0,0,.33,1.23L27,48.38a1.17,1.17,0,0,0,1,0l11.11-6.46a.9.9,0,0,0,.33-1.23Z"/></g><g id="Networks.WORDMARK"><path class="cls-2" d="M54.58,48.33V39.57h1.2l3.56,7.69,0,0V39.57h.78v8.76H59l-3.58-7.78,0,0v7.76Z"/><path class="cls-2" d="M69.64,39.57v.65H66.43V43.5h3.06v.66H66.43v3.51h3.29v.66H65.65V39.57Z"/><path class="cls-2" d="M76.12,40.22H74v-.65H79v.65H76.9v8.11h-.78Z"/><path class="cls-2" d="M87.41,39.57h1l1.77,7.68h0l1.87-7.68h.77l-2.18,8.76h-1l-1.77-7.79h0l-1.81,7.79h-1L83,39.57h.82l1.78,7.74h0Z"/><path class="cls-2" d="M100.05,39.4c2.63,0,2.66,2.18,2.66,4.55s0,4.55-2.66,4.55S97.4,46.32,97.4,44,97.42,39.4,100.05,39.4Zm0,8.44c1.85,0,1.88-1.56,1.88-3.89s0-3.9-1.88-3.9-1.88,1.57-1.88,3.9S98.2,47.84,100.05,47.84Z"/><path class="cls-2" d="M108.7,44.08v4.25h-.78V39.57h2.42c1.7,0,2.12.56,2.12,2.1,0,1.09-.18,1.82-1.36,2.08v0c1.23.25,1.3.4,1.3,3.53,0,.34.06.68.09,1h-.75c-.07-.25-.11-1.71-.12-2.18s.25-2.07-1.45-2.07Zm0-.65H110c1.17,0,1.71-.31,1.71-1.78,0-1.2-.47-1.43-1.39-1.43H108.7Z"/><path class="cls-2" d="M117.79,48.33V39.57h.78v4h0l3.12-4h.94l-3.29,4.09,3.38,4.67h-1l-3.18-4.49h0v4.49Z"/><path class="cls-2" d="M131.18,41.79c0-1.08-.29-1.74-1.48-1.74-.95,0-1.55.33-1.55,1.36,0,1.3.66,1.34,1.66,2.05s2.19,1,2.19,2.71a2.07,2.07,0,0,1-2.34,2.33c-1.72,0-2.48-.92-2.41-2.63h.8c0,1,.08,2,1.65,2a1.36,1.36,0,0,0,1.52-1.55c0-1.19-.79-1.53-2.06-2.3-1.7-1.05-1.78-1.57-1.79-2.44,0-1.52.95-2.15,2.39-2.15,1.83,0,2.22,1.13,2.22,2.39Z"/></g><g id="AerohiveWordmark"><path class="cls-2" d="M61.8,34.33l-.56-4H57.93l-.5,4H54.58l3.13-21.68h3.53l3.41,21.68Zm-2.34-17.9L58.24,27.7h2.62Z"/><path class="cls-2" d="M66.12,34.33V12.65H73.4v2.7H69.05v6.36h3.88v2.7H69.08v7.18H73.4v2.74Z"/><path class="cls-2" d="M81.34,34.33a18.35,18.35,0,0,1-.44-4.55V28.25A16.73,16.73,0,0,0,80.77,26a2.05,2.05,0,0,0-.53-1.38,1.43,1.43,0,0,0-.94-.28H78.12v10H75.21V12.65H80c.38,0,.75,0,1.1,0a2.54,2.54,0,0,1,2.68,2.12,16.49,16.49,0,0,1,.19,3.1c0,.83,0,1.69-.06,2.55a5.22,5.22,0,0,1-.35,1.72,2.43,2.43,0,0,1-2.25,1.17,2.33,2.33,0,0,1,2,.92c.5.76.54,1.65.54,3.44v2.36c0,2.46.06,2.92.56,4.27Zm-.35-18c0-.46-.12-.71-.31-.86s-.5-.19-1.06-.19H78.15V22h1.37c.75,0,1.19-.19,1.38-1a20.87,20.87,0,0,0,.16-3.31C81.06,17.23,81,16.77,81,16.31Z"/><path class="cls-2" d="M95.12,32c-.94,2.55-3.81,2.52-4.47,2.52a5.69,5.69,0,0,1-1.84-.27,4,4,0,0,1-2.38-2.64,7,7,0,0,1-.22-2.28V18.55c0-1.94,0-3.81,1.72-5.1a4.81,4.81,0,0,1,3-.95,4.6,4.6,0,0,1,2.88.86,3.65,3.65,0,0,1,1,1.17c.62,1.07.65,2.21.65,4.63V29.48A7.22,7.22,0,0,1,95.12,32ZM92.59,18.3a5.22,5.22,0,0,0-.35-2.67A1.48,1.48,0,0,0,90.9,15a2,2,0,0,0-1.06.3c-.78.49-.72,1.38-.72,3V29.91c0,1.16.19,2.27,1.69,2.27,1.87,0,1.78-1.66,1.78-2.95Z"/><path class="cls-2" d="M103.53,34.33V24.26h-2.69V34.33H97.93V12.65h2.91v8.81h2.69V12.65h2.9V34.33Z"/><path class="cls-2" d="M108.93,34.33V12.65h2.88V34.33Z"/><path class="cls-2" d="M120,34.33h-3.44l-3.38-21.68h2.91L118.34,30l2.16-17.38h2.87Z"/><path class="cls-2" d="M124.72,34.33V12.65H132v2.7h-4.34v6.36h3.87v2.7h-3.84v7.18H132v2.74Z"/><path class="cls-2" d="M136.7,32.77a.4.4,0,0,0-.43-.42h0a.48.48,0,0,0,.44-.53.52.52,0,0,0-.55-.57h-.91v2.17h.49v-.9h.13c.37,0,.34.22.34.48a1,1,0,0,0,.06.42h.48A3.14,3.14,0,0,1,136.7,32.77Zm-.74-.56h-.22V31.6H136c.16,0,.26.08.26.29S136.16,32.21,136,32.21Z"/><path class="cls-2" d="M136,34.58a2.25,2.25,0,1,1,2.25-2.25A2.25,2.25,0,0,1,136,34.58Zm0-4a1.75,1.75,0,1,0,1.75,1.75A1.75,1.75,0,0,0,136,30.58Z"/></g></g></svg>