<?xml version="1.0" encoding="UTF-8"?>
<svg width="18px" height="18px" viewBox="0 0 18 18" version="1.1" xmlns="http://www.w3.org/2000/svg" xmlns:xlink="http://www.w3.org/1999/xlink">
    <!-- Generator: Sketch 46.2 (44496) - http://www.bohemiancoding.com/sketch -->
    <title>Fill 50</title>
    <desc>Created with Sketch.</desc>
    <defs></defs>
    <g id="final" stroke="none" stroke-width="1" fill="none" fill-rule="evenodd">
        <g id="top-nav" transform="translate(-137.000000, -644.000000)" fill="#FFFFFF">
            <g id="Fill-50" transform="translate(137.000000, 644.000000)">
                <path d="M9.89986409,14.0911688 L8.10013591,14.0911688 L8.10013591,9.89986409 L3.90883118,9.89986409 L3.90883118,8.10013591 L8.10013591,8.10013591 L8.10013591,3.90883118 L9.89986409,3.90883118 L9.89986409,8.10013591 L14.0911688,8.10013591 L14.0911688,9.89986409 L9.89986409,9.89986409 L9.89986409,14.0911688 Z M9,0 C4.0302,0 0,4.0302 0,9 C0,13.9698 4.0302,18 9,18 C13.9707,18 18,13.9698 18,9 C18,4.0302 13.9707,0 9,0 L9,0 Z"></path>
            </g>
        </g>
    </g>
</svg>