<?xml version="1.0" encoding="UTF-8"?>
<svg width="18px" height="18px" viewBox="0 0 18 18" version="1.1" xmlns="http://www.w3.org/2000/svg" xmlns:xlink="http://www.w3.org/1999/xlink">
    <!-- Generator: Sketch 46.2 (44496) - http://www.bohemiancoding.com/sketch -->
    <title>Fill 1403 + Fill 1404</title>
    <desc>Created with Sketch.</desc>
    <defs></defs>
    <g id="final" stroke="none" stroke-width="1" fill="none" fill-rule="evenodd">
        <g id="top-nav" transform="translate(-38.000000, -644.000000)" fill="#FFFFFF">
            <g id="Fill-1403-+-Fill-1404" transform="translate(38.000000, 644.000000)">
                <path d="M3.43096364,12.0917455 C2.27405455,10.9356545 1.63669091,9.39829091 1.63669091,7.76192727 C1.63669091,6.12556364 2.27405455,4.58738182 3.43096364,3.43129091 C4.58787273,2.27356364 6.12523636,1.63701818 7.7616,1.63701818 C9.39714545,1.63701818 10.9353273,2.27356364 12.0922364,3.43210909 C13.2491455,4.58738182 13.8865091,6.12556364 13.8865091,7.76192727 C13.8865091,9.39829091 13.2491455,10.9356545 12.0922364,12.0917455 C10.9353273,13.2494727 9.39714545,13.8860182 7.7616,13.8860182 C6.12523636,13.8860182 4.58787273,13.2494727 3.43096364,12.0917455 M17.5208727,15.2073818 L14.2816909,11.9673818 C15.0867818,10.7245636 15.5228727,9.27801818 15.5228727,7.76192727 C15.5228727,5.68865455 14.7153273,3.73974545 13.2491455,2.27356364 C11.7837818,0.807381818 9.83487273,0.000654545455 7.7616,0.000654545455 C5.68832727,0.000654545455 3.73941818,0.807381818 2.27405455,2.27356364 C0.807872727,3.73974545 0.000327272727,5.68865455 0.000327272727,7.76192727 C0.000327272727,9.83438182 0.807872727,11.7841091 2.27405455,13.2494727 C3.73941818,14.7156545 5.68832727,15.5223818 7.7616,15.5223818 C9.27769091,15.5223818 10.7250545,15.0871091 11.9678727,14.2812 L15.2062364,17.5203818 C15.5163273,17.8296545 15.9262364,17.9998364 16.3639636,17.9998364 C16.8008727,17.9998364 17.2116,17.8296545 17.5208727,17.5203818 C17.8301455,17.2119273 18.0003273,16.8012 18.0003273,16.3634727 C18.0003273,15.9265636 17.8301455,15.5158364 17.5208727,15.2073818" id="Fill-1403"></path>
            </g>
        </g>
    </g>
</svg>